<?xml version="1.0" standalone="no"?>
<!DOCTYPE svg PUBLIC "-//W3C//DTD SVG 20010904//EN"
 "http://www.w3.org/TR/2001/REC-SVG-20010904/DTD/svg10.dtd">
<svg version="1.0" xmlns="http://www.w3.org/2000/svg"
 width="698.000000pt" height="440.000000pt" viewBox="0 0 698.000000 440.000000"
 preserveAspectRatio="xMidYMid meet">

<g transform="translate(0.000000,440.000000) scale(0.100000,-0.100000)"
fill="#000000" stroke="none">
<path d="M3640 3156 c0 -2 7 -7 16 -10 8 -3 12 -2 9 4 -6 10 -25 14 -25 6z"/>
<path d="M3960 3008 c13 -14 49 -27 54 -20 3 5 0 9 -7 9 -7 0 -21 4 -32 8 -11
5 -18 6 -15 3z"/>
<path d="M4380 2816 c0 -3 9 -10 20 -16 11 -6 20 -8 20 -6 0 3 -9 10 -20 16
-11 6 -20 8 -20 6z"/>
<path d="M4485 2789 c3 -17 0 -19 -18 -13 -12 3 -19 3 -15 -1 4 -4 18 -9 30
-10 13 -2 31 -6 41 -10 30 -12 20 23 -12 40 -29 14 -30 14 -26 -6z m25 -9 c0
-5 -2 -10 -4 -10 -3 0 -8 5 -11 10 -3 6 -1 10 4 10 6 0 11 -4 11 -10z"/>
<path d="M4634 2725 c-10 -25 -1 -34 72 -69 53 -25 75 -31 83 -23 22 22 10 38
-46 63 -99 44 -103 45 -109 29z"/>
<path d="M4887 2613 c-21 -20 -2 -41 66 -75 77 -38 101 -37 95 2 -2 19 -18 30
-72 52 -75 30 -79 31 -89 21z"/>
<path d="M5143 2503 c-21 -7 -15 -41 9 -57 12 -9 36 -16 53 -16 32 0 75 -19
45 -20 -9 -1 -5 -6 10 -15 28 -15 50 -4 50 24 0 23 -141 93 -167 84z"/>
<path d="M5387 2373 c-8 -32 -7 -78 2 -92 8 -12 16 -13 50 -2 23 6 41 16 41
21 0 6 5 9 12 8 6 -2 14 6 16 16 3 15 0 17 -14 12 -11 -4 -30 3 -55 24 -44 35
-46 36 -52 13z"/>
<path d="M5207 2273 c-9 -2 -14 -9 -11 -15 4 -6 2 -8 -4 -4 -6 3 -23 1 -39 -6
-15 -6 -32 -10 -36 -9 -5 1 -7 -11 -5 -26 2 -14 9 -28 16 -29 7 -1 8 0 2 3 -7
3 -6 11 5 23 13 15 23 16 48 9 26 -7 34 -6 45 8 11 16 14 16 22 3 8 -12 10
-10 10 8 0 13 4 20 10 17 6 -4 8 -11 5 -16 -3 -5 1 -6 9 -3 13 5 12 9 -8 25
-24 19 -35 21 -69 12z"/>
<path d="M4905 2172 c-71 -24 -80 -30 -80 -52 0 -34 24 -36 107 -9 71 23 98
49 76 77 -13 16 -10 16 -103 -16z"/>
<path d="M4635 2081 c-76 -25 -80 -27 -80 -56 0 -36 12 -36 115 -2 50 17 66
27 68 43 6 39 -18 43 -103 15z"/>
<path d="M1887 2034 c-3 -3 -19 -6 -36 -6 -37 -1 -38 -4 -10 -18 15 -9 24 -8
37 2 15 12 16 11 3 -4 -12 -16 -8 -20 41 -43 145 -66 312 -58 456 21 66 37 75
46 40 36 -13 -3 -19 -1 -15 5 4 6 -3 8 -18 5 -14 -2 -22 -9 -19 -14 3 -5 13
-7 23 -3 13 5 13 4 4 -6 -10 -10 -17 -9 -33 6 -11 10 -20 14 -20 9 0 -5 -8
-10 -17 -11 -10 -1 -43 -9 -73 -17 -74 -22 -175 -20 -250 3 -34 11 -69 17 -78
14 -9 -4 -13 -2 -9 4 7 11 -17 26 -26 17z"/>
<path d="M4341 1986 c-74 -26 -94 -47 -69 -72 15 -16 22 -15 100 12 74 26 83
32 83 54 0 34 -31 35 -114 6z"/>
<path d="M4065 1895 c-38 -14 -71 -25 -72 -25 -11 0 0 -52 11 -56 8 -3 51 7
96 22 76 25 81 28 78 53 -4 35 -27 36 -113 6z"/>
<path d="M3785 1801 c-56 -21 -71 -31 -73 -50 -6 -38 15 -40 102 -11 77 25 81
28 81 56 0 39 -21 40 -110 5z"/>
<path d="M3515 1711 c-72 -23 -80 -29 -83 -53 -3 -25 0 -28 25 -27 15 0 57 10
93 22 56 19 65 26 68 48 2 15 -3 29 -10 31 -7 3 -49 -6 -93 -21z"/>
<path d="M3228 1616 c-70 -26 -82 -38 -73 -65 8 -27 15 -27 107 6 78 28 92 40
82 68 -8 21 -48 18 -116 -9z"/>
<path d="M2955 1526 c-77 -28 -85 -33 -85 -57 0 -31 22 -32 107 -6 73 24 78
27 78 54 0 36 -21 38 -100 9z"/>
<path d="M2744 1451 c3 -5 15 -11 26 -14 17 -4 19 -3 9 9 -12 15 -44 20 -35 5z"/>
<path d="M2621 1413 c-24 -10 75 -44 100 -35 21 8 21 9 -7 20 -41 16 -77 22
-93 15z"/>
<path d="M2600 1365 c0 -10 9 -15 27 -15 29 0 29 2 -4 19 -19 10 -23 9 -23 -4z"/>
<path d="M2390 1339 c-62 -22 -85 -41 -77 -63 8 -21 31 -20 108 5 74 25 92 39
83 62 -8 22 -43 20 -114 -4z"/>
<path d="M2169 1246 c-25 -17 -40 -21 -51 -15 -26 14 -34 -10 -11 -32 19 -20
21 -20 69 -2 40 15 49 23 49 42 0 33 -14 35 -56 7z"/>
</g>
</svg>
